<svg width="18" height="20" viewBox="0 0 18 20" fill="none" xmlns="http://www.w3.org/2000/svg">
<path fill-rule="evenodd" clip-rule="evenodd" d="M4.0506 5.40687C4.0506 2.80658 5.98646 0 9.11389 0C12.2413 0 14.1772 2.80658 14.1772 5.40687C14.1772 9.26031 11.5489 11.6456 9.11389 11.6456C6.67887 11.6456 4.0506 9.26031 4.0506 5.40687ZM4.91266 5.84549C5.09578 8.92491 7.17595 10.814 9.11392 10.814C11.0519 10.814 13.1316 8.92533 13.3156 5.84674C12.0603 5.67871 10.8873 5.14925 9.94599 4.31909C8.78312 5.34806 7.3 5.91079 5.72616 5.91079C5.45738 5.91079 5.1865 5.88459 4.91266 5.84549Z" fill="#473BF0"/>
<path opacity="0.5" d="M16.6975 13.7638L12.3101 11.1396C11.2819 12.0246 10.0527 12.5112 8.86076 12.5112C7.66878 12.5112 6.43966 12.0246 5.41139 11.1396L1.02405 13.7638C0.392405 14.1415 0 14.8326 0 15.5669V18.8203C0 19.0529 0.18903 19.2409 0.421941 19.2409H8.43882V15.0349C8.43882 14.8023 8.62743 14.6143 8.86076 14.6143C9.09409 14.6143 9.2827 14.8023 9.2827 15.0349V19.2409H17.2996C17.5325 19.2409 17.7215 19.0529 17.7215 18.8203V15.5669C17.7215 14.8326 17.3291 14.1415 16.6975 13.7638Z" fill="#473BF0"/>
</svg>
