<svg width="115" height="155" viewBox="0 0 115 155" fill="none" xmlns="http://www.w3.org/2000/svg">
<path d="M78.8105 52.9131C78.9908 53.1709 84.4327 54.2069 87.2556 58.1199C88.898 60.368 90.2759 62.7816 91.3643 65.3172C91.3643 65.3172 96.085 67.9953 98.5047 70.2028C100.924 72.4104 103.809 75.3418 106.034 76.8799C108.259 78.418 112.838 81.3358 113.991 84.7512C113.991 84.7512 107.125 102.679 105.185 106.642C103.244 110.604 98.4572 119.014 98.4572 119.014L89.9172 153.607H40.3805L38.6915 141.741C38.6915 141.741 23.5093 138.9 17.166 133.599C17.166 133.599 16.5682 120.48 19.2203 108.777C21.8725 97.0739 30.8917 72.7407 37.0025 65.3082C37.0025 65.3082 46.7618 60.8568 55.373 59.4273C55.373 59.4273 60.9619 55.2157 64.6199 54.7678C68.2778 54.32 78.8105 52.9131 78.8105 52.9131Z" fill="white"/>
<path d="M39.3605 147.088C43.7586 147.889 47.5921 148.581 52.0708 148.531C56.5496 148.481 61.1232 147.522 64.7859 145.075C65.4936 144.513 66.2956 144.07 67.1582 143.763C69.1034 143.243 71.0296 144.469 72.9606 145.039C75.4087 145.763 78.0941 145.419 80.4948 144.55C82.8955 143.682 85.0542 142.329 87.1939 140.981C86.8776 145.143 86.7748 149.312 86.8856 153.489L89.9362 153.607L97.7503 120.823C97.7503 120.823 84.3852 135.625 77.8711 140.045L65.3743 136.978C65.3743 136.978 64.1976 137.909 61.721 138.38C61.721 138.38 60.5871 142.537 54.2106 142.546C47.8341 142.555 38.6915 141.741 38.6915 141.741L39.3605 147.088Z" fill="#128983" fill-opacity="0.9"/>
<path opacity="0.5" d="M39.3605 147.088C43.7586 147.889 47.5921 148.581 52.0708 148.531C56.5496 148.481 61.1232 147.522 64.7859 145.075C65.4936 144.513 66.2956 144.07 67.1582 143.763C69.1034 143.243 71.0296 144.469 72.9606 145.039C75.4087 145.763 78.0941 145.419 80.4948 144.55C82.8955 143.682 85.0542 142.329 87.1939 140.981C86.8776 145.143 86.7748 149.312 86.8856 153.489L89.9362 153.607L97.7503 120.823C97.7503 120.823 84.3852 135.625 77.8711 140.045L65.3743 136.978C65.3743 136.978 64.1976 137.909 61.721 138.38C61.721 138.38 60.5871 142.537 54.2106 142.546C47.8341 142.555 38.6915 141.741 38.6915 141.741L39.3605 147.088Z" fill="white"/>
<path d="M26.5553 85.918C26.5553 85.918 20.7528 112.775 21.047 121.999C21.047 121.999 28.9322 119.891 34.4358 121.999C34.4358 121.999 25.0702 121.004 21.0375 125.098C17.0047 129.192 29.4162 139.95 54.2485 137.765C54.2485 137.765 59.2017 139.244 61.7163 138.375C61.7163 138.375 61.0426 142.655 54.2058 142.542C47.3976 142.284 27.4804 142.126 17.1613 133.603C17.166 133.607 15.866 108.917 26.5553 85.918Z" fill="#128983" fill-opacity="0.9"/>
<path opacity="0.6" d="M26.5553 85.918C26.5553 85.918 20.7528 112.775 21.047 121.999C21.047 121.999 28.9322 119.891 34.4358 121.999C34.4358 121.999 25.0702 121.004 21.0375 125.098C17.0047 129.192 29.4162 139.95 54.2485 137.765C54.2485 137.765 59.2017 139.244 61.7163 138.375C61.7163 138.375 61.0426 142.655 54.2058 142.542C47.3976 142.284 27.4804 142.126 17.1613 133.603C17.166 133.607 15.866 108.917 26.5553 85.918Z" fill="white"/>
<path d="M38.4211 91.0654C38.4211 91.0654 40.1339 102.958 42.8999 105.446C45.6659 107.934 58.5565 107.12 63.6616 109.803C63.6616 109.803 68.4677 101.864 77.1595 96.8965L65.3743 114.589L55.188 112.295L42.7528 110.486L41.709 112.775H39.8397C39.8397 112.775 39.631 100.081 38.4211 91.0654Z" fill="#128983" fill-opacity="0.9"/>
<path opacity="0.5" d="M38.4211 91.0654C38.4211 91.0654 40.1339 102.958 42.8999 105.446C45.6659 107.934 58.5565 107.12 63.6616 109.803C63.6616 109.803 68.4677 101.864 77.1595 96.8965L65.3743 114.589L55.188 112.295L42.7528 110.486L41.709 112.775H39.8397C39.8397 112.775 39.631 100.081 38.4211 91.0654Z" fill="white"/>
<path d="M87.1418 66.8419C92.4698 69.8321 93.0676 73.2023 94.1635 75.6089C91.3928 76.1337 88.5271 76.6946 86.2403 78.2734C83.3936 80.2458 81.8517 83.5119 80.6561 86.6831C79.5251 89.684 78.5747 92.744 77.8094 95.8482C80.3847 91.4124 84.0452 87.6351 88.4797 84.8374C91.0369 83.2269 94.1967 81.9286 97.1146 82.8379C94.6664 83.8286 91.8957 85.1676 91.3785 87.6557C91.2768 88.0687 91.2949 88.5003 91.4307 88.9042C91.8672 90.0759 93.3949 90.3925 94.5526 90.9625C96.8109 92.0708 97.9875 94.5815 98.0872 97.0153C98.1868 99.4491 97.404 101.801 96.6306 104.104C95.9506 106.122 95.2706 108.139 94.5905 110.157C93.7223 112.735 92.8398 115.35 91.2694 117.612C89.699 119.874 87.341 121.769 84.5371 122.213C83.3648 122.428 82.1514 122.297 81.0594 121.837C80.2316 121.408 79.462 120.884 78.7678 120.276C75.4039 117.686 71.3615 116.022 67.0775 115.463C72.5906 118.937 75.2 125.248 77.4868 131.161C76.4368 129.408 74.9237 127.948 73.0982 126.926C72.6303 126.616 72.0742 126.448 71.5041 126.447C70.0048 126.56 69.5304 128.383 68.629 129.523C67.5472 130.88 65.5688 131.364 63.7944 131.147C62.0199 130.93 60.3879 130.138 58.7937 129.337L38.6251 119.421L37.2018 123.493C37.2018 123.493 53.2665 135.707 77.8806 140.027C77.8806 140.027 93.8694 127.98 99.5342 117.3C105.199 106.619 114 84.7288 114 84.7288C114 84.7288 110.779 78.9113 105.256 75.8758C105.256 75.8758 101.133 74.0166 100.265 71.7185C99.3966 69.4205 91.649 65.4531 91.649 65.4531C91.649 65.4531 92.6548 67.905 87.1418 66.8419Z" fill="#128983" fill-opacity="0.9"/>
<path opacity="0.6" d="M87.1418 66.8419C92.4698 69.8321 93.0676 73.2023 94.1635 75.6089C91.3928 76.1337 88.5271 76.6946 86.2403 78.2734C83.3936 80.2458 81.8517 83.5119 80.6561 86.6831C79.5251 89.684 78.5747 92.744 77.8094 95.8482C80.3847 91.4124 84.0452 87.6351 88.4797 84.8374C91.0369 83.2269 94.1967 81.9286 97.1146 82.8379C94.6664 83.8286 91.8957 85.1676 91.3785 87.6557C91.2768 88.0687 91.2949 88.5003 91.4307 88.9042C91.8672 90.0759 93.3949 90.3925 94.5526 90.9625C96.8109 92.0708 97.9875 94.5815 98.0872 97.0153C98.1868 99.4491 97.404 101.801 96.6306 104.104C95.9506 106.122 95.2706 108.139 94.5905 110.157C93.7223 112.735 92.8398 115.35 91.2694 117.612C89.699 119.874 87.341 121.769 84.5371 122.213C83.3648 122.428 82.1514 122.297 81.0594 121.837C80.2316 121.408 79.462 120.884 78.7678 120.276C75.4039 117.686 71.3615 116.022 67.0775 115.463C72.5906 118.937 75.2 125.248 77.4868 131.161C76.4368 129.408 74.9237 127.948 73.0982 126.926C72.6303 126.616 72.0742 126.448 71.5041 126.447C70.0048 126.56 69.5304 128.383 68.629 129.523C67.5472 130.88 65.5688 131.364 63.7944 131.147C62.0199 130.93 60.3879 130.138 58.7937 129.337L38.6251 119.421L37.2018 123.493C37.2018 123.493 53.2665 135.707 77.8806 140.027C77.8806 140.027 93.8694 127.98 99.5342 117.3C105.199 106.619 114 84.7288 114 84.7288C114 84.7288 110.779 78.9113 105.256 75.8758C105.256 75.8758 101.133 74.0166 100.265 71.7185C99.3966 69.4205 91.649 65.4531 91.649 65.4531C91.649 65.4531 92.6548 67.905 87.1418 66.8419Z" fill="white"/>
<path d="M85.4479 25.2009C85.4479 25.2009 86.5249 13.2265 81.1115 12.082C75.6981 10.9375 72.6569 6.20117 72.6569 6.20117L53.4514 11.313L50.4719 22.3238L52.3697 27.8971C52.3697 27.8971 52.7682 33.0677 52.8441 35.6236C52.9201 38.1795 52.8441 40.1474 54.8748 43.2506C56.9054 46.3539 58.7937 49.4346 63.1823 52.1172V59.1697C63.1823 59.1697 60.4685 66.7198 61.9677 71.3521C61.9677 71.3521 62.8644 72.2569 65.341 70.8998C67.8176 69.5426 78.4119 62.7932 82.1078 55.7452L83.256 37.8267C83.256 37.8267 86.3067 38.279 87.6209 35.6281C89.5519 33.036 89.476 30.0142 88.7263 27.5532C87.9767 25.0923 84.7505 26.6847 84.7505 26.6847L85.4479 25.2009Z" fill="#999999"/>
<path d="M63.3911 42.7568C63.9342 42.193 64.6034 41.753 65.3492 41.4695C66.095 41.186 66.8981 41.0663 67.6991 41.1192C67.6991 41.1192 70.0096 37.6404 72.4435 38.2783C72.4435 38.2783 73.1931 41.9651 70.2753 43.4173C66.4797 45.3037 63.3911 42.7568 63.3911 42.7568Z" fill="#737373"/>
<path d="M56.2554 9.78809C56.2554 9.78809 51.658 15.5468 51.9237 21.5498C52.1894 27.5528 53.1051 31.8097 52.8394 36.442C52.5737 41.0743 57.6977 48.8325 62.9498 51.9584C66.8734 54.2972 71.7934 53.8991 75.6127 51.5061C79.8827 48.7918 82.2312 43.9152 83.0899 39.2331C83.1753 38.7808 83.2417 38.3284 83.2892 37.8398" stroke="#263238" stroke-linecap="round" stroke-linejoin="round"/>
<path d="M62.9498 51.9628C62.9498 51.9628 63.6946 58.4499 62.9498 60.671C62.129 63.1093 61.1374 68.7866 62.0009 71.3516C62.8644 73.9166 79.0192 63.1365 82.141 55.7402C82.141 55.7402 82.5728 41.3682 83.6498 37.7764" stroke="#263238" stroke-linecap="round" stroke-linejoin="round"/>
<path d="M62.5039 42.5987C62.5039 42.5987 69.853 44.5801 72.861 37.3467" stroke="#263238" stroke-linecap="round" stroke-linejoin="round"/>
<path d="M63.0969 53.5234C63.0969 53.5234 64.6626 58.1512 68.0406 58.4272C71.4187 58.7031 79.8685 52.2477 82.7484 44.6433V40.8389C82.7484 40.8389 80.3762 50.7911 73.4303 52.6006C66.4845 54.4101 63.2345 52.1075 63.2345 52.1075L63.0969 53.5234Z" fill="#263238"/>
<path d="M72.4387 38.2776C69.1746 38.0605 67.6943 41.1186 67.6943 41.1186C66.8898 41.025 66.0735 41.1259 65.3207 41.4121C64.5679 41.6983 63.9027 42.1605 63.3864 42.7561C64.1906 43.4439 65.1792 43.9054 66.2422 44.0891C67.3052 44.2728 68.4008 44.1715 69.407 43.7966C73.1172 42.5661 72.4387 38.2776 72.4387 38.2776Z" stroke="#263238" stroke-linecap="round" stroke-linejoin="round"/>
<path d="M64.2546 24.6338C64.2951 26.069 64.2285 27.5051 64.0553 28.9313C63.8798 30.2116 63.2583 31.4375 62.7411 32.6408C62.2667 33.7356 61.4744 35.4184 62.1338 36.572C62.8835 37.8793 65.3743 36.572 65.3743 36.572" stroke="#263238" stroke-linecap="round" stroke-linejoin="round"/>
<path d="M66.9067 36.3009C67.7465 36.4095 68.9374 36.3009 69.1746 34.9121" stroke="#263238" stroke-linecap="round" stroke-linejoin="round"/>
<path d="M69.6205 22.9062C70.4323 22.1678 71.5112 21.7559 72.6332 21.7559C73.7552 21.7559 74.8341 22.1678 75.6459 22.9062" stroke="#263238" stroke-width="2" stroke-linecap="round" stroke-linejoin="round"/>
<path d="M60.0462 24.0374C60.0462 24.0374 57.821 21.3231 54.908 24.0374" stroke="#263238" stroke-width="2" stroke-linecap="round" stroke-linejoin="round"/>
<path d="M81.5432 30.8994C81.5432 30.8994 84.0815 25.0864 87.3931 26.3349C89.6752 27.199 89.8128 30.9537 88.6029 33.5729C87.3931 36.1922 86.7858 38.8612 82.753 37.3683" stroke="#263238" stroke-linecap="round" stroke-linejoin="round"/>
<path d="M81.9941 30.0089C81.9941 30.0089 79.5554 29.1855 79.1047 25.4082C78.654 21.6309 81.0831 17.849 80.1817 15.1348C79.2803 12.4205 72.1778 13.7777 70.56 9.04582C70.56 9.04582 65.2272 12.8367 54.9033 12.0224C54.9033 12.0224 52.7256 15.56 52.3461 17.7224C51.8378 21.1033 51.8506 24.5369 52.384 27.9144C52.384 28.032 52.4267 28.1451 52.4504 28.2627C53.1906 31.945 49.5042 23.2504 49.6038 19.5364C49.7034 15.8224 47.3549 11.1041 50.4151 7.58918C53.4753 4.07422 64.6958 2.01592 66.9068 0.364754C69.1177 -1.28641 73.4161 3.11067 78.3836 4.73017C83.351 6.34967 87.4692 8.28131 86.8429 14.9991C86.2166 21.7168 86.8761 22.6171 86.9046 26.1546C86.9046 26.1637 84.6083 25.3404 81.9941 30.0089Z" fill="#263238"/>
<path d="M72.6427 27.8016C72.6427 28.7063 72.2774 29.4572 71.8219 29.4572C71.3664 29.4572 71.0059 28.7154 71.0059 27.8016C71.0059 26.8878 71.3712 26.1504 71.8219 26.1504C72.2726 26.1504 72.6427 26.8968 72.6427 27.8016Z" fill="#263238"/>
<path d="M60.0463 27.8016C60.0463 28.7063 59.681 29.4572 59.2302 29.4572C58.7795 29.4572 58.4142 28.7154 58.4142 27.8016C58.4142 26.8878 58.7795 26.1504 59.2302 26.1504C59.681 26.1504 60.0463 26.8968 60.0463 27.8016Z" fill="#263238"/>
<path d="M69.6205 30.0088C69.6205 30.0088 71.3142 31.7233 73.4587 31.9676" stroke="#263238" stroke-linecap="round" stroke-linejoin="round"/>
<path d="M58.082 31.9676C58.082 31.9676 61.1802 31.7595 61.8776 30.0088" stroke="#263238" stroke-linecap="round" stroke-linejoin="round"/>
<path d="M65.2842 72.4507C67.59 71.0529 70.6407 71.5777 73.1647 72.5684C74.5501 73.1157 75.869 73.8033 77.2497 74.3778C77.9322 74.6656 78.6364 74.9046 79.3562 75.0926C81.0879 75.5224 80.4664 73.4731 80.3668 72.5548C80.2244 71.2384 80.1248 69.9174 79.9587 68.6101C79.8906 68.3393 79.9241 68.0544 80.0536 67.8048C80.2239 67.6035 80.4619 67.4645 80.7273 67.4113C83.7685 66.5065 87.0469 66.9046 90.2162 66.9589C90.504 66.9914 90.7953 66.9393 91.0512 66.8096C91.5257 66.5156 91.4735 65.8506 91.3454 65.3258C90.2494 60.8564 86.3827 56.4095 82.1791 54.1748" stroke="#263238" stroke-linecap="round" stroke-linejoin="round"/>
<path d="M63.2155 54.8984C61.1232 55.7308 58.974 56.5948 57.1711 57.8705C56.517 58.3253 55.9144 58.8438 55.373 59.4177C54.9368 59.8133 54.6626 60.3441 54.5996 60.915C54.6113 61.1805 54.6851 61.4402 54.8156 61.675C54.9461 61.9099 55.1301 62.1139 55.354 62.2721C55.6724 62.522 56.0232 62.7318 56.3978 62.8964C57.2707 63.29 58.2955 63.6745 58.6656 64.5114C58.7555 64.6867 58.7885 64.8836 58.7605 65.0769C58.7134 65.2466 58.622 65.4022 58.4948 65.5292C57.7736 66.3661 56.5021 67.013 56.597 68.0942C56.6587 68.9311 57.5459 69.4513 58.3335 69.8223C59.1211 70.1932 60.0415 70.5777 60.3119 71.3784" stroke="#263238" stroke-linecap="round" stroke-linejoin="round"/>
<path d="M50.8279 12.4794C51.1363 10.6699 53.1194 9.50279 55.0267 9.20875C56.934 8.9147 58.8934 9.20875 60.8149 9.05042C62.422 8.89901 63.9762 8.42043 65.3725 7.64703C66.7689 6.87362 67.9749 5.82341 68.9089 4.56738" stroke="white" stroke-linecap="round" stroke-linejoin="round"/>
<path d="M52.9865 7.39425C56.4309 5.45357 61.2702 7.47116 64.6293 5.39928C65.5799 4.73942 66.4074 3.93201 67.0774 3.01074" stroke="white" stroke-linecap="round" stroke-linejoin="round"/>
<path d="M96.9247 81.6338C84.5891 83.9816 79.987 92.6355 79.987 92.6355L65.3741 114.58" stroke="#263238" stroke-linecap="round" stroke-linejoin="round"/>
<path d="M86.4965 79.2631C87.5199 78.359 88.6793 77.6058 89.9362 77.0283" stroke="#263238" stroke-linecap="round" stroke-linejoin="round"/>
<path d="M77.8711 95.8292C77.8711 95.8292 79.4273 87.9036 83.8965 82.0635" stroke="#263238" stroke-linecap="round" stroke-linejoin="round"/>
<path d="M39.8397 112.739C39.8397 112.739 39.1992 88.4604 36.993 84.751" stroke="#263238" stroke-linecap="round" stroke-linejoin="round"/>
<path d="M91.3643 65.3164C91.3643 65.3164 98.481 69.3878 101.641 73.2149C104.801 77.042 112.268 79.5843 113.976 84.7504C113.976 84.7504 104.141 114.3 93.8362 124.98C83.5312 135.661 77.8569 140.044 77.8569 140.044C77.8569 140.044 53.0672 135.937 36.9883 123.062L42.7385 110.463C42.7385 110.463 58.9503 112.418 65.36 114.589C71.7698 116.76 77.8569 129.911 77.8569 129.911" stroke="#263238" stroke-linecap="round" stroke-linejoin="round"/>
<path d="M65.3741 114.59C65.3741 114.59 76.7228 116.693 80.4093 121.62" stroke="#263238" stroke-linecap="round" stroke-linejoin="round"/>
<path d="M98.0302 119.655L89.9362 153.606H40.3805L38.6915 141.74" stroke="#263238" stroke-linecap="round" stroke-linejoin="round"/>
<path d="M61.721 138.38C58.9835 143.727 55.373 142.546 55.373 142.546C27.4519 143.555 17.166 133.607 17.166 133.607C17.166 133.607 15.7426 119.615 21.232 100.733C26.7213 81.8512 37.0025 65.3169 37.0025 65.3169C41.5619 62.4263 51.734 60.1689 54.6044 59.5718L55.373 59.418" stroke="#263238" stroke-linecap="round" stroke-linejoin="round"/>
<path d="M55.3872 142.546C55.3872 142.546 53.9116 142.315 54.2864 132.987" stroke="#263238" stroke-linecap="round" stroke-linejoin="round"/>
<path d="M37.7569 123.66C37.7569 123.66 30.7826 121.316 22.1429 127.016" stroke="#263238" stroke-linecap="round" stroke-linejoin="round"/>
<path d="M23.7085 121.619C23.7085 121.619 32.8463 119.027 36.9929 123.18" stroke="#263238" stroke-linecap="round" stroke-linejoin="round"/>
<path d="M36.0061 122.945L37.1922 123.51L41.7089 112.753C41.7089 112.753 37.0309 112.025 29.6201 120.823C31.9342 120.849 34.1764 121.594 36.0061 122.945Z" fill="#999999" stroke="#263238" stroke-miterlimit="10"/>
<path d="M54.2722 132.987V137.769C54.2722 137.769 60.663 139.578 65.3932 136.977L54.2722 132.987Z" fill="#999999" stroke="#263238" stroke-miterlimit="10"/>
<path d="M88.9115 66.9089C88.9161 66.9973 88.9065 67.0858 88.883 67.1713C88.6837 67.9177 83.8112 85.4563 68.2162 93.2598C68.0806 93.3291 67.9289 93.3648 67.775 93.3638C67.5629 93.3637 67.3571 93.2958 67.1902 93.1711C67.0233 93.0464 66.9051 92.872 66.8543 92.6757C66.8035 92.4795 66.8231 92.2726 66.91 92.0882C66.9969 91.9038 67.1461 91.7525 67.3337 91.6583C81.5671 84.5425 86.582 68.3249 87.0184 66.832L88.9115 66.9089Z" fill="#263238"/>
<path d="M55.3539 62.258C52.8885 67.6271 51.5584 73.4072 51.4398 79.2673C51.4398 79.7423 51.4398 80.2263 51.4398 80.7194C51.4398 80.8416 51.4398 80.9637 51.4398 81.0858C51.2982 81.0904 51.1572 81.104 51.0175 81.1265C50.5041 81.2038 50.0064 81.3564 49.542 81.5789C49.542 80.9139 49.542 80.267 49.542 79.6292C49.746 69.4779 52.9248 62.5701 54.6185 59.5845L55.3871 59.4307C54.951 59.8263 54.6768 60.3571 54.6138 60.928C54.6279 61.1878 54.7015 61.4414 54.8294 61.6712C54.9572 61.9009 55.1363 62.1012 55.3539 62.258Z" fill="#263238"/>
<path d="M74.0376 89.1788C75.1478 90.649 74.2369 93.0919 71.9975 94.6345C69.7581 96.1771 67.0443 96.2313 65.9294 94.7611C64.8144 93.2909 65.7254 90.8481 67.9647 89.3055C70.2041 87.7629 72.9417 87.7086 74.0376 89.1788Z" fill="white" stroke="#263238" stroke-linecap="round" stroke-linejoin="round"/>
<path d="M71.2763 88.3055C72.0639 89.346 71.4186 91.074 69.853 92.1643C68.2873 93.2545 66.3468 93.2952 65.583 92.2547C64.8191 91.2143 65.4407 89.4862 67.0063 88.396C68.572 87.3058 70.4887 87.2696 71.2763 88.3055Z" fill="white" stroke="#263238" stroke-linecap="round" stroke-linejoin="round"/>
<path d="M58.7367 106.668C58.5346 106.796 58.2887 106.846 58.0496 106.806C57.8105 106.767 57.5963 106.641 57.4511 106.456C57.3059 106.271 57.2406 106.039 57.2689 105.809C57.2971 105.58 57.4166 105.369 57.6028 105.22C57.6834 105.157 60.8669 102.574 59.4721 93.8749C59.3535 93.1376 59.2016 92.3504 58.9976 91.5226C58.3951 88.8852 57.4652 85.5467 55.5626 83.0949C55.11 82.4481 54.4902 81.9235 53.7631 81.5717C53.0359 81.2199 52.2259 81.0527 51.4113 81.0863C51.2697 81.0909 51.1287 81.1045 50.989 81.127C50.4756 81.2043 49.9779 81.3569 49.5135 81.5794C48.0962 82.2775 47.0204 83.4752 46.515 84.9179L46.3442 85.3703C45.2683 88.1444 44.3886 90.9841 43.711 93.8704C42.9519 97.4215 42.6957 101.145 44.0431 103.746C44.4042 104.459 44.9185 105.093 45.5527 105.605C46.187 106.117 46.927 106.496 47.7248 106.718C47.939 106.785 48.1212 106.923 48.2386 107.106C48.356 107.29 48.4011 107.507 48.3657 107.719C48.3303 107.932 48.2167 108.125 48.0454 108.265C47.8741 108.405 47.6562 108.482 47.4307 108.482C47.3307 108.482 47.2315 108.467 47.1365 108.437C46.0989 108.14 45.1373 107.641 44.3125 106.971C43.4877 106.301 42.8176 105.476 42.3446 104.546C40.8264 101.62 41.0257 97.6342 41.7943 93.8704C42.4757 90.7751 43.3987 87.7328 44.5555 84.7686L44.7263 84.3163C45.0993 83.2396 45.7241 82.2578 46.5534 81.4451C47.3827 80.6324 48.3949 80.0101 49.5135 79.6251C49.9006 79.4972 50.2993 79.4034 50.7043 79.3447C50.9463 79.313 51.1788 79.2904 51.4255 79.2768C52.536 79.2477 53.6365 79.4846 54.6262 79.9659C55.6158 80.4472 56.4631 81.1575 57.0904 82.0318C59.2064 84.746 60.2122 88.3333 60.8527 91.1471C61.0757 92.1152 61.2465 93.0245 61.3746 93.884C62.8738 103.637 58.9217 106.541 58.7367 106.668Z" fill="#263238" stroke="#263238" stroke-miterlimit="10"/>
<path d="M46.7665 108.325C46.7665 108.325 50.2062 109.682 51.0792 108.325C51.9522 106.968 51.2453 106.33 50.0544 106.221C48.8675 106.163 47.6782 106.163 46.4913 106.221L46.7665 108.325Z" fill="#263238" stroke="#263238" stroke-miterlimit="10"/>
<path d="M48.3464 107.871C48.2844 108.053 48.1638 108.211 48.0019 108.323C47.84 108.435 47.6451 108.495 47.445 108.495C47.345 108.495 47.2457 108.48 47.1508 108.45C46.1132 108.153 45.1516 107.654 44.3268 106.984C43.5019 106.315 42.8319 105.489 42.3589 104.56C40.8407 101.633 41.04 97.6475 41.8086 93.8838H43.7063C42.9472 97.4349 42.691 101.158 44.0385 103.759C44.3995 104.473 44.9138 105.106 45.548 105.618C46.1823 106.13 46.9223 106.509 47.7201 106.731C47.8402 106.766 47.9517 106.824 48.0483 106.9C48.1449 106.977 48.2247 107.071 48.2829 107.177C48.3412 107.283 48.3768 107.399 48.3877 107.518C48.3986 107.637 48.3845 107.757 48.3464 107.871Z" fill="white" stroke="#263238" stroke-linecap="round" stroke-linejoin="round"/>
<path d="M55.5675 105.687C55.4245 105.849 55.3189 106.038 55.2576 106.241C55.1963 106.445 55.1806 106.658 55.2117 106.868C55.3064 107.178 55.5122 107.446 55.793 107.626C56.0739 107.806 56.4121 107.887 56.7489 107.854C57.4228 107.768 58.0388 107.446 58.4758 106.949C58.9503 106.442 60.5966 103.127 59.0736 103.696C57.9682 104.095 56.3076 104.769 55.5675 105.687Z" fill="#263238" stroke="#263238" stroke-miterlimit="10"/>
<path d="M58.7368 106.668C58.5347 106.796 58.2889 106.846 58.0497 106.806C57.8106 106.767 57.5964 106.642 57.4512 106.456C57.306 106.271 57.2408 106.039 57.269 105.81C57.2972 105.58 57.4167 105.369 57.6029 105.221C57.6836 105.157 60.8671 102.574 59.4722 93.875H61.37C62.874 103.637 58.9219 106.541 58.7368 106.668Z" fill="white" stroke="#263238" stroke-linecap="round" stroke-linejoin="round"/>
<path opacity="0.2" d="M67.2483 26.7114C67.2483 26.7114 73.2215 23.7529 78.7109 26.7114C78.7109 26.7114 78.801 31.0768 76.7277 32.8727C75.9923 33.5106 72.6237 33.6191 71.3475 33.5106C66.1666 33.0627 67.2483 26.7114 67.2483 26.7114Z" fill="white"/>
<path opacity="0.2" d="M63.5002 26.7114C63.5002 26.7114 57.5269 23.7529 52.0423 26.7114C52.0423 26.7114 51.9522 31.0768 54.0208 32.8727C54.7561 33.5106 58.1294 33.6191 59.401 33.5106C64.5819 33.0627 63.5002 26.7114 63.5002 26.7114Z" fill="white"/>
<path d="M67.2483 26.7114C67.2483 26.7114 73.2215 23.7529 78.7109 26.7114C78.7109 26.7114 78.801 31.0768 76.7277 32.8727C75.9923 33.5106 72.6237 33.6191 71.3475 33.5106C66.1666 33.0627 67.2483 26.7114 67.2483 26.7114Z" stroke="#263238" stroke-miterlimit="10"/>
<path d="M63.5002 26.7114C63.5002 26.7114 57.5269 23.7529 52.0423 26.7114C52.0423 26.7114 51.9522 31.0768 54.0208 32.8727C54.7561 33.5106 58.1294 33.6191 59.401 33.5106C64.5819 33.0627 63.5002 26.7114 63.5002 26.7114Z" stroke="#263238" stroke-miterlimit="10"/>
<path d="M63.5002 26.7111C63.5002 26.7111 64.8382 25.7747 67.2483 26.7111" stroke="#263238" stroke-miterlimit="10"/>
<path d="M78.7108 26.7109L81.2064 27.8147" stroke="#263238" stroke-miterlimit="10"/>
<path d="M36.1354 34.7539C37.6473 26.1221 31.3966 17.9776 22.174 16.5625C12.9515 15.1474 4.24945 20.9978 2.73755 29.6295C1.22564 38.2613 7.47636 46.4059 16.6989 47.821C25.9215 49.236 34.6235 43.3857 36.1354 34.7539Z" fill="white" stroke="#263238" stroke-linecap="round" stroke-linejoin="round"/>
<path d="M29.1483 33.7793C29.019 33.9528 28.8897 34.1317 28.7548 34.3053C26.2202 37.5928 22.3143 40.6594 19.42 41.2642V41.2222C16.61 40.633 12.8278 37.7137 10.2931 34.5262C10.1526 34.3526 10.0178 34.1738 9.8885 34.0002C7.44942 30.7285 6.42096 27.2937 9.13542 25.8735C14.6543 22.991 19.42 29.1715 19.42 29.1715C19.42 29.1715 24.197 23.0383 29.7046 25.9156C32.346 27.2937 31.4412 30.5864 29.1483 33.7793Z" fill="#128983" fill-opacity="0.9" stroke="#263238" stroke-miterlimit="10"/>
<path d="M29.1483 33.779C29.019 33.9526 28.8898 34.1314 28.7549 34.305H27.3611L25.765 36.2775L24.6804 30.4284L22.9944 34.405H19.0098L16.9698 37.5873L15.3962 31.1438L13.3673 34.5049H10.2932C10.1527 34.3313 10.0178 34.1525 9.88855 33.9789H13.0414L15.621 29.7025L17.2058 36.1986L18.7063 33.8579H22.6403L24.8883 28.4717L26.091 34.973L27.0745 33.758L29.1483 33.779Z" fill="white"/>
</svg>
