<svg width="288" height="20" viewBox="0 0 288 20" fill="none" xmlns="http://www.w3.org/2000/svg">
<path d="M0.761364 15V0.454545H2.52273V6.93182H10.2784V0.454545H12.0398V15H10.2784V8.49432H2.52273V15H0.761364ZM19.9126 15.2273C18.8615 15.2273 17.9548 14.9953 17.1925 14.5312C16.4349 14.0625 15.8501 13.4091 15.4382 12.571C15.031 11.7282 14.8274 10.7481 14.8274 9.63068C14.8274 8.51326 15.031 7.52841 15.4382 6.67614C15.8501 5.81913 16.4231 5.15152 17.157 4.6733C17.8956 4.19034 18.7573 3.94886 19.7422 3.94886C20.3104 3.94886 20.8714 4.04356 21.4254 4.23295C21.9794 4.42235 22.4837 4.73011 22.9382 5.15625C23.3928 5.57765 23.755 6.13636 24.0249 6.83239C24.2947 7.52841 24.4297 8.38542 24.4297 9.40341V10.1136H16.0206V8.66477H22.7251C22.7251 8.04924 22.602 7.5 22.3558 7.01705C22.1143 6.53409 21.7687 6.15294 21.3189 5.87358C20.8738 5.59422 20.3482 5.45455 19.7422 5.45455C19.0746 5.45455 18.4969 5.62026 18.0092 5.9517C17.5263 6.27841 17.1546 6.70455 16.8942 7.23011C16.6338 7.75568 16.5036 8.31913 16.5036 8.92045V9.88636C16.5036 10.7102 16.6456 11.4086 16.9297 11.9815C17.2185 12.5497 17.6186 12.983 18.13 13.2812C18.6413 13.5748 19.2356 13.7216 19.9126 13.7216C20.353 13.7216 20.7507 13.66 21.1058 13.5369C21.4657 13.4091 21.7758 13.2197 22.0362 12.9688C22.2966 12.7131 22.4979 12.3958 22.6399 12.017L24.2592 12.4716C24.0888 13.0208 23.8023 13.5038 23.3999 13.9205C22.9974 14.3324 22.5002 14.6544 21.9084 14.8864C21.3165 15.1136 20.6513 15.2273 19.9126 15.2273ZM30.1896 15.2557C29.4983 15.2557 28.871 15.1255 28.3075 14.8651C27.7441 14.5999 27.2966 14.2188 26.9652 13.7216C26.6338 13.2197 26.468 12.6136 26.468 11.9034C26.468 11.2784 26.5911 10.7718 26.8374 10.3835C27.0836 9.99053 27.4126 9.68276 27.8246 9.46023C28.2365 9.23769 28.6911 9.07197 29.1882 8.96307C29.6901 8.84943 30.1944 8.75947 30.701 8.69318C31.3639 8.60795 31.9013 8.54403 32.3132 8.50142C32.7299 8.45407 33.0329 8.37595 33.2223 8.26705C33.4164 8.15814 33.5135 7.96875 33.5135 7.69886V7.64205C33.5135 6.94129 33.3217 6.39678 32.9382 6.00852C32.5594 5.62027 31.9841 5.42614 31.2124 5.42614C30.4122 5.42614 29.7848 5.60133 29.3303 5.9517C28.8757 6.30208 28.5561 6.67614 28.3714 7.07386L26.7805 6.50568C27.0646 5.8428 27.4434 5.3267 27.9169 4.95739C28.3951 4.58333 28.916 4.32292 29.4794 4.17614C30.0476 4.02462 30.6063 3.94886 31.1555 3.94886C31.5059 3.94886 31.9084 3.99148 32.3629 4.0767C32.8222 4.1572 33.2649 4.32528 33.6911 4.58097C34.1219 4.83665 34.4794 5.22254 34.7635 5.73864C35.0476 6.25473 35.1896 6.94602 35.1896 7.8125V15H33.5135V13.5227H33.4283C33.3146 13.7595 33.1252 14.0128 32.8601 14.2827C32.5949 14.5526 32.2422 14.7822 31.8018 14.9716C31.3615 15.161 30.8241 15.2557 30.1896 15.2557ZM30.4453 13.75C31.1082 13.75 31.6669 13.6198 32.1214 13.3594C32.5807 13.099 32.9264 12.7628 33.1584 12.3509C33.3951 11.9389 33.5135 11.5057 33.5135 11.0511V9.51705C33.4425 9.60227 33.2862 9.6804 33.0447 9.75142C32.808 9.81771 32.5334 9.87689 32.2209 9.92898C31.9131 9.97633 31.6125 10.0189 31.3189 10.0568C31.0301 10.09 30.7957 10.1184 30.6158 10.142C30.1802 10.1989 29.773 10.2912 29.3942 10.419C29.0201 10.5421 28.7171 10.7292 28.4851 10.9801C28.2578 11.2263 28.1442 11.5625 28.1442 11.9886C28.1442 12.571 28.3596 13.0114 28.7905 13.3097C29.2261 13.6032 29.7777 13.75 30.4453 13.75ZM39.9251 0.454545V15H38.2489V0.454545H39.9251ZM42.995 15V4.09091H44.6712V15H42.995ZM43.8473 2.27273C43.5206 2.27273 43.2389 2.16146 43.0021 1.93892C42.7701 1.71638 42.6541 1.44886 42.6541 1.13636C42.6541 0.823864 42.7701 0.556345 43.0021 0.333806C43.2389 0.111269 43.5206 0 43.8473 0C44.174 0 44.4534 0.111269 44.6854 0.333806C44.9221 0.556345 45.0405 0.823864 45.0405 1.13636C45.0405 1.44886 44.9221 1.71638 44.6854 1.93892C44.4534 2.16146 44.174 2.27273 43.8473 2.27273ZM49.4173 8.4375V15H47.7411V4.09091H49.3604V5.79545H49.5025C49.7582 5.24148 50.1464 4.7964 50.6673 4.46023C51.1881 4.11932 51.8604 3.94886 52.6843 3.94886C53.4229 3.94886 54.0692 4.10038 54.6232 4.40341C55.1772 4.7017 55.6081 5.15625 55.9158 5.76705C56.2236 6.37311 56.3775 7.14015 56.3775 8.06818V15H54.7013V8.18182C54.7013 7.32481 54.4788 6.6572 54.0337 6.17898C53.5887 5.69602 52.9779 5.45455 52.2013 5.45455C51.6663 5.45455 51.1881 5.57055 50.7667 5.80256C50.35 6.03456 50.021 6.37311 49.7795 6.81818C49.538 7.26326 49.4173 7.80303 49.4173 8.4375ZM63.8438 19.3182C63.0341 19.3182 62.3381 19.214 61.7557 19.0057C61.1733 18.8021 60.688 18.5322 60.2997 18.196C59.9162 17.8646 59.6108 17.5095 59.3835 17.1307L60.7188 16.1932C60.8703 16.392 61.062 16.6193 61.294 16.875C61.526 17.1354 61.8433 17.3603 62.2457 17.5497C62.6529 17.7438 63.1856 17.8409 63.8438 17.8409C64.7244 17.8409 65.4512 17.6278 66.0241 17.2017C66.5971 16.7756 66.8835 16.108 66.8835 15.1989V12.983H66.7415C66.6184 13.1818 66.4432 13.428 66.2159 13.7216C65.9934 14.0104 65.6714 14.2685 65.25 14.4957C64.8333 14.7183 64.2699 14.8295 63.5597 14.8295C62.679 14.8295 61.8883 14.6212 61.1875 14.2045C60.4915 13.7879 59.9399 13.1818 59.5327 12.3864C59.1302 11.5909 58.929 10.625 58.929 9.48864C58.929 8.37121 59.1255 7.3982 59.5185 6.5696C59.9115 5.73627 60.4583 5.09233 61.1591 4.63778C61.8598 4.1785 62.6695 3.94886 63.5881 3.94886C64.2983 3.94886 64.8617 4.06723 65.2784 4.30398C65.6998 4.53598 66.0218 4.80114 66.2443 5.09943C66.4716 5.39299 66.6468 5.63447 66.7699 5.82386H66.9403V4.09091H68.5597V15.3125C68.5597 16.25 68.3466 17.0123 67.9205 17.5994C67.4991 18.1913 66.9309 18.6245 66.2159 18.8991C65.5057 19.1785 64.715 19.3182 63.8438 19.3182ZM63.7869 13.3239C64.4593 13.3239 65.0275 13.17 65.4915 12.8622C65.9555 12.5545 66.3082 12.1117 66.5497 11.5341C66.7912 10.9564 66.9119 10.2652 66.9119 9.46023C66.9119 8.67424 66.7936 7.98059 66.5568 7.37926C66.3201 6.77794 65.9697 6.30682 65.5057 5.96591C65.0417 5.625 64.4688 5.45455 63.7869 5.45455C63.0767 5.45455 62.4848 5.63447 62.0114 5.99432C61.5426 6.35417 61.1899 6.83712 60.9531 7.44318C60.7211 8.04924 60.6051 8.72159 60.6051 9.46023C60.6051 10.2178 60.7235 10.8878 60.9602 11.4702C61.2017 12.0478 61.5568 12.5024 62.0256 12.8338C62.4991 13.1605 63.0862 13.3239 63.7869 13.3239ZM77.4801 15V0.454545H79.2415V6.93182H86.9972V0.454545H88.7585V15H86.9972V8.49432H79.2415V15H77.4801ZM96.6314 15.2273C95.5803 15.2273 94.6735 14.9953 93.9112 14.5312C93.1536 14.0625 92.5689 13.4091 92.157 12.571C91.7498 11.7282 91.5462 10.7481 91.5462 9.63068C91.5462 8.51326 91.7498 7.52841 92.157 6.67614C92.5689 5.81913 93.1418 5.15152 93.8757 4.6733C94.6143 4.19034 95.4761 3.94886 96.4609 3.94886C97.0291 3.94886 97.5902 4.04356 98.1442 4.23295C98.6982 4.42235 99.2024 4.73011 99.657 5.15625C100.112 5.57765 100.474 6.13636 100.744 6.83239C101.013 7.52841 101.148 8.38542 101.148 9.40341V10.1136H92.7393V8.66477H99.4439C99.4439 8.04924 99.3208 7.5 99.0746 7.01705C98.8331 6.53409 98.4875 6.15294 98.0376 5.87358C97.5926 5.59422 97.067 5.45455 96.4609 5.45455C95.7933 5.45455 95.2157 5.62026 94.728 5.9517C94.245 6.27841 93.8733 6.70455 93.6129 7.23011C93.3525 7.75568 93.2223 8.31913 93.2223 8.92045V9.88636C93.2223 10.7102 93.3643 11.4086 93.6484 11.9815C93.9373 12.5497 94.3374 12.983 94.8487 13.2812C95.3601 13.5748 95.9543 13.7216 96.6314 13.7216C97.0717 13.7216 97.4695 13.66 97.8246 13.5369C98.1844 13.4091 98.4946 13.2197 98.755 12.9688C99.0154 12.7131 99.2166 12.3958 99.3587 12.017L100.978 12.4716C100.808 13.0208 100.521 13.5038 100.119 13.9205C99.7161 14.3324 99.219 14.6544 98.6271 14.8864C98.0353 15.1136 97.37 15.2273 96.6314 15.2273ZM106.908 15.2557C106.217 15.2557 105.59 15.1255 105.026 14.8651C104.463 14.5999 104.015 14.2188 103.684 13.7216C103.353 13.2197 103.187 12.6136 103.187 11.9034C103.187 11.2784 103.31 10.7718 103.556 10.3835C103.802 9.99053 104.131 9.68276 104.543 9.46023C104.955 9.23769 105.41 9.07197 105.907 8.96307C106.409 8.84943 106.913 8.75947 107.42 8.69318C108.083 8.60795 108.62 8.54403 109.032 8.50142C109.449 8.45407 109.752 8.37595 109.941 8.26705C110.135 8.15814 110.232 7.96875 110.232 7.69886V7.64205C110.232 6.94129 110.04 6.39678 109.657 6.00852C109.278 5.62027 108.703 5.42614 107.931 5.42614C107.131 5.42614 106.504 5.60133 106.049 5.9517C105.594 6.30208 105.275 6.67614 105.09 7.07386L103.499 6.50568C103.783 5.8428 104.162 5.3267 104.636 4.95739C105.114 4.58333 105.635 4.32292 106.198 4.17614C106.766 4.02462 107.325 3.94886 107.874 3.94886C108.225 3.94886 108.627 3.99148 109.082 4.0767C109.541 4.1572 109.984 4.32528 110.41 4.58097C110.841 4.83665 111.198 5.22254 111.482 5.73864C111.766 6.25473 111.908 6.94602 111.908 7.8125V15H110.232V13.5227H110.147C110.033 13.7595 109.844 14.0128 109.579 14.2827C109.314 14.5526 108.961 14.7822 108.521 14.9716C108.08 15.161 107.543 15.2557 106.908 15.2557ZM107.164 13.75C107.827 13.75 108.386 13.6198 108.84 13.3594C109.299 13.099 109.645 12.7628 109.877 12.3509C110.114 11.9389 110.232 11.5057 110.232 11.0511V9.51705C110.161 9.60227 110.005 9.6804 109.763 9.75142C109.527 9.81771 109.252 9.87689 108.94 9.92898C108.632 9.97633 108.331 10.0189 108.038 10.0568C107.749 10.09 107.514 10.1184 107.335 10.142C106.899 10.1989 106.492 10.2912 106.113 10.419C105.739 10.5421 105.436 10.7292 105.204 10.9801C104.977 11.2263 104.863 11.5625 104.863 11.9886C104.863 12.571 105.078 13.0114 105.509 13.3097C105.945 13.6032 106.496 13.75 107.164 13.75ZM114.968 15V4.09091H116.587V5.73864H116.701C116.9 5.19886 117.259 4.76089 117.78 4.42472C118.301 4.08854 118.888 3.92045 119.542 3.92045C119.665 3.92045 119.819 3.92282 120.003 3.92756C120.188 3.93229 120.328 3.93939 120.422 3.94886V5.65341C120.365 5.6392 120.235 5.6179 120.032 5.58949C119.833 5.55634 119.622 5.53977 119.4 5.53977C118.869 5.53977 118.396 5.65104 117.979 5.87358C117.567 6.09138 117.24 6.39441 116.999 6.78267C116.762 7.16619 116.644 7.60417 116.644 8.09659V15H114.968ZM127.837 4.09091V5.51136H122.184V4.09091H127.837ZM123.831 1.47727H125.507V11.875C125.507 12.3485 125.576 12.7036 125.713 12.9403C125.855 13.1723 126.035 13.3286 126.253 13.4091C126.476 13.4848 126.71 13.5227 126.956 13.5227C127.141 13.5227 127.292 13.5133 127.411 13.4943C127.529 13.4706 127.624 13.4517 127.695 13.4375L128.036 14.9432C127.922 14.9858 127.764 15.0284 127.56 15.071C127.356 15.1184 127.098 15.142 126.786 15.142C126.312 15.142 125.848 15.0402 125.394 14.8366C124.944 14.633 124.57 14.3229 124.272 13.9062C123.978 13.4896 123.831 12.964 123.831 12.3295V1.47727ZM137.89 6.53409L136.385 6.96023C136.29 6.70928 136.15 6.46544 135.966 6.22869C135.786 5.98722 135.539 5.78835 135.227 5.6321C134.914 5.47585 134.514 5.39773 134.027 5.39773C133.359 5.39773 132.803 5.55161 132.358 5.85938C131.917 6.16241 131.697 6.5483 131.697 7.01705C131.697 7.43371 131.849 7.76278 132.152 8.00426C132.455 8.24574 132.928 8.44697 133.572 8.60795L135.191 9.00568C136.167 9.24242 136.894 9.60464 137.372 10.0923C137.85 10.5753 138.089 11.1979 138.089 11.9602C138.089 12.5852 137.909 13.1439 137.549 13.6364C137.194 14.1288 136.697 14.517 136.058 14.8011C135.419 15.0852 134.675 15.2273 133.828 15.2273C132.715 15.2273 131.794 14.9858 131.065 14.5028C130.336 14.0199 129.874 13.3144 129.68 12.3864L131.271 11.9886C131.422 12.5758 131.709 13.0161 132.13 13.3097C132.556 13.6032 133.113 13.75 133.799 13.75C134.581 13.75 135.201 13.5843 135.66 13.2528C136.124 12.9167 136.356 12.5142 136.356 12.0455C136.356 11.6667 136.224 11.3494 135.958 11.0938C135.693 10.8333 135.286 10.6392 134.737 10.5114L132.919 10.0852C131.92 9.84848 131.186 9.48153 130.717 8.98438C130.253 8.48248 130.021 7.85511 130.021 7.10227C130.021 6.48674 130.194 5.94223 130.539 5.46875C130.89 4.99527 131.366 4.62358 131.967 4.35369C132.573 4.08381 133.26 3.94886 134.027 3.94886C135.106 3.94886 135.954 4.18561 136.569 4.65909C137.19 5.13258 137.63 5.75758 137.89 6.53409ZM143.112 13.0114L142.999 13.7784C142.918 14.3182 142.795 14.8958 142.629 15.5114C142.468 16.1269 142.3 16.7069 142.125 17.2514C141.95 17.7959 141.805 18.2292 141.692 18.5511H140.413C140.475 18.2481 140.555 17.848 140.655 17.3509C140.754 16.8537 140.854 16.2973 140.953 15.6818C141.057 15.071 141.143 14.446 141.209 13.8068L141.294 13.0114H143.112ZM162.013 5C161.857 4.52178 161.651 4.09328 161.395 3.71449C161.144 3.33097 160.844 3.00426 160.493 2.73438C160.148 2.46449 159.755 2.25852 159.314 2.11648C158.874 1.97443 158.391 1.90341 157.865 1.90341C157.004 1.90341 156.22 2.12595 155.515 2.57102C154.809 3.0161 154.248 3.67188 153.831 4.53835C153.415 5.40483 153.206 6.4678 153.206 7.72727C153.206 8.98674 153.417 10.0497 153.838 10.9162C154.26 11.7827 154.83 12.4384 155.55 12.8835C156.27 13.3286 157.079 13.5511 157.979 13.5511C158.812 13.5511 159.546 13.3736 160.181 13.0185C160.82 12.6586 161.317 12.152 161.672 11.4986C162.032 10.8404 162.212 10.0663 162.212 9.17614L162.752 9.28977H158.377V7.72727H163.917V9.28977C163.917 10.4877 163.661 11.5294 163.15 12.4148C162.643 13.3002 161.942 13.9867 161.047 14.4744C160.157 14.9574 159.134 15.1989 157.979 15.1989C156.691 15.1989 155.56 14.8958 154.584 14.2898C153.614 13.6837 152.856 12.822 152.311 11.7045C151.772 10.5871 151.502 9.26136 151.502 7.72727C151.502 6.5767 151.656 5.54214 151.963 4.62358C152.276 3.70028 152.716 2.9143 153.284 2.26562C153.853 1.61695 154.525 1.11979 155.301 0.774148C156.078 0.428503 156.933 0.255681 157.865 0.255681C158.632 0.255681 159.347 0.371685 160.01 0.603693C160.678 0.830965 161.272 1.1553 161.793 1.5767C162.319 1.99337 162.757 2.4929 163.107 3.07528C163.457 3.65294 163.699 4.29451 163.831 5H162.013ZM173.581 10.5398V4.09091H175.257V15H173.581V13.1534H173.467C173.212 13.7074 172.814 14.1785 172.274 14.5668C171.734 14.9503 171.053 15.142 170.229 15.142C169.547 15.142 168.941 14.9929 168.411 14.6946C167.88 14.3916 167.464 13.937 167.161 13.331C166.857 12.7202 166.706 11.9508 166.706 11.0227V4.09091H168.382V10.9091C168.382 11.7045 168.605 12.339 169.05 12.8125C169.5 13.286 170.072 13.5227 170.768 13.5227C171.185 13.5227 171.609 13.4162 172.04 13.2031C172.475 12.9901 172.84 12.6634 173.134 12.223C173.432 11.7827 173.581 11.2216 173.581 10.5398ZM178.327 15V4.09091H180.003V15H178.327ZM179.179 2.27273C178.853 2.27273 178.571 2.16146 178.334 1.93892C178.102 1.71638 177.986 1.44886 177.986 1.13636C177.986 0.823864 178.102 0.556345 178.334 0.333806C178.571 0.111269 178.853 0 179.179 0C179.506 0 179.785 0.111269 180.017 0.333806C180.254 0.556345 180.373 0.823864 180.373 1.13636C180.373 1.44886 180.254 1.71638 180.017 1.93892C179.785 2.16146 179.506 2.27273 179.179 2.27273ZM187.192 15.2273C186.283 15.2273 185.481 14.9976 184.785 14.5384C184.089 14.0743 183.544 13.4209 183.151 12.5781C182.758 11.7306 182.562 10.7292 182.562 9.57386C182.562 8.42803 182.758 7.43371 183.151 6.59091C183.544 5.74811 184.091 5.09706 184.792 4.63778C185.493 4.1785 186.302 3.94886 187.221 3.94886C187.931 3.94886 188.492 4.06723 188.904 4.30398C189.321 4.53598 189.638 4.80114 189.856 5.09943C190.078 5.39299 190.251 5.63447 190.374 5.82386H190.516V0.454545H192.192V15H190.573V13.3239H190.374C190.251 13.5227 190.076 13.7737 189.849 14.0767C189.621 14.375 189.297 14.6425 188.876 14.8793C188.454 15.1113 187.893 15.2273 187.192 15.2273ZM187.42 13.7216C188.092 13.7216 188.66 13.5464 189.124 13.196C189.588 12.8409 189.941 12.3509 190.183 11.7259C190.424 11.0961 190.545 10.3693 190.545 9.54545C190.545 8.73106 190.426 8.01847 190.19 7.40767C189.953 6.79214 189.603 6.31392 189.138 5.97301C188.674 5.62737 188.102 5.45455 187.42 5.45455C186.71 5.45455 186.118 5.63684 185.644 6.00142C185.175 6.36127 184.823 6.85133 184.586 7.47159C184.354 8.08712 184.238 8.77841 184.238 9.54545C184.238 10.322 184.356 11.0275 184.593 11.6619C184.835 12.2917 185.19 12.7936 185.658 13.1676C186.132 13.5369 186.719 13.7216 187.42 13.7216ZM195.495 15V4.09091H197.171V15H195.495ZM196.347 2.27273C196.021 2.27273 195.739 2.16146 195.502 1.93892C195.27 1.71638 195.154 1.44886 195.154 1.13636C195.154 0.823864 195.27 0.556345 195.502 0.333806C195.739 0.111269 196.021 0 196.347 0C196.674 0 196.953 0.111269 197.185 0.333806C197.422 0.556345 197.54 0.823864 197.54 1.13636C197.54 1.44886 197.422 1.71638 197.185 1.93892C196.953 2.16146 196.674 2.27273 196.347 2.27273ZM201.917 8.4375V15H200.241V4.09091H201.86V5.79545H202.002C202.258 5.24148 202.646 4.7964 203.167 4.46023C203.688 4.11932 204.36 3.94886 205.184 3.94886C205.923 3.94886 206.569 4.10038 207.123 4.40341C207.677 4.7017 208.108 5.15625 208.416 5.76705C208.724 6.37311 208.877 7.14015 208.877 8.06818V15H207.201V8.18182C207.201 7.32481 206.979 6.6572 206.534 6.17898C206.089 5.69602 205.478 5.45455 204.701 5.45455C204.166 5.45455 203.688 5.57055 203.267 5.80256C202.85 6.03456 202.521 6.37311 202.279 6.81818C202.038 7.26326 201.917 7.80303 201.917 8.4375ZM216.344 19.3182C215.534 19.3182 214.838 19.214 214.256 19.0057C213.673 18.8021 213.188 18.5322 212.8 18.196C212.416 17.8646 212.111 17.5095 211.884 17.1307L213.219 16.1932C213.37 16.392 213.562 16.6193 213.794 16.875C214.026 17.1354 214.343 17.3603 214.746 17.5497C215.153 17.7438 215.686 17.8409 216.344 17.8409C217.224 17.8409 217.951 17.6278 218.524 17.2017C219.097 16.7756 219.384 16.108 219.384 15.1989V12.983H219.241C219.118 13.1818 218.943 13.428 218.716 13.7216C218.493 14.0104 218.171 14.2685 217.75 14.4957C217.333 14.7183 216.77 14.8295 216.06 14.8295C215.179 14.8295 214.388 14.6212 213.688 14.2045C212.991 13.7879 212.44 13.1818 212.033 12.3864C211.63 11.5909 211.429 10.625 211.429 9.48864C211.429 8.37121 211.625 7.3982 212.018 6.5696C212.411 5.73627 212.958 5.09233 213.659 4.63778C214.36 4.1785 215.17 3.94886 216.088 3.94886C216.798 3.94886 217.362 4.06723 217.778 4.30398C218.2 4.53598 218.522 4.80114 218.744 5.09943C218.972 5.39299 219.147 5.63447 219.27 5.82386H219.44V4.09091H221.06V15.3125C221.06 16.25 220.847 17.0123 220.42 17.5994C219.999 18.1913 219.431 18.6245 218.716 18.8991C218.006 19.1785 217.215 19.3182 216.344 19.3182ZM216.287 13.3239C216.959 13.3239 217.527 13.17 217.991 12.8622C218.455 12.5545 218.808 12.1117 219.05 11.5341C219.291 10.9564 219.412 10.2652 219.412 9.46023C219.412 8.67424 219.294 7.98059 219.057 7.37926C218.82 6.77794 218.47 6.30682 218.006 5.96591C217.542 5.625 216.969 5.45455 216.287 5.45455C215.577 5.45455 214.985 5.63447 214.511 5.99432C214.043 6.35417 213.69 6.83712 213.453 7.44318C213.221 8.04924 213.105 8.72159 213.105 9.46023C213.105 10.2178 213.223 10.8878 213.46 11.4702C213.702 12.0478 214.057 12.5024 214.526 12.8338C214.999 13.1605 215.586 13.3239 216.287 13.3239ZM229.98 15V0.454545H231.741V6.93182H239.497V0.454545H241.259V15H239.497V8.49432H231.741V15H229.98ZM247.768 15.2557C247.076 15.2557 246.449 15.1255 245.886 14.8651C245.322 14.5999 244.875 14.2188 244.543 13.7216C244.212 13.2197 244.046 12.6136 244.046 11.9034C244.046 11.2784 244.169 10.7718 244.415 10.3835C244.662 9.99053 244.991 9.68276 245.403 9.46023C245.815 9.23769 246.269 9.07197 246.766 8.96307C247.268 8.84943 247.772 8.75947 248.279 8.69318C248.942 8.60795 249.479 8.54403 249.891 8.50142C250.308 8.45407 250.611 8.37595 250.8 8.26705C250.995 8.15814 251.092 7.96875 251.092 7.69886V7.64205C251.092 6.94129 250.9 6.39678 250.516 6.00852C250.138 5.62027 249.562 5.42614 248.79 5.42614C247.99 5.42614 247.363 5.60133 246.908 5.9517C246.454 6.30208 246.134 6.67614 245.95 7.07386L244.359 6.50568C244.643 5.8428 245.022 5.3267 245.495 4.95739C245.973 4.58333 246.494 4.32292 247.058 4.17614C247.626 4.02462 248.184 3.94886 248.734 3.94886C249.084 3.94886 249.487 3.99148 249.941 4.0767C250.4 4.1572 250.843 4.32528 251.269 4.58097C251.7 4.83665 252.058 5.22254 252.342 5.73864C252.626 6.25473 252.768 6.94602 252.768 7.8125V15H251.092V13.5227H251.006C250.893 13.7595 250.703 14.0128 250.438 14.2827C250.173 14.5526 249.82 14.7822 249.38 14.9716C248.94 15.161 248.402 15.2557 247.768 15.2557ZM248.023 13.75C248.686 13.75 249.245 13.6198 249.7 13.3594C250.159 13.099 250.504 12.7628 250.737 12.3509C250.973 11.9389 251.092 11.5057 251.092 11.0511V9.51705C251.021 9.60227 250.864 9.6804 250.623 9.75142C250.386 9.81771 250.112 9.87689 249.799 9.92898C249.491 9.97633 249.191 10.0189 248.897 10.0568C248.608 10.09 248.374 10.1184 248.194 10.142C247.758 10.1989 247.351 10.2912 246.972 10.419C246.598 10.5421 246.295 10.7292 246.063 10.9801C245.836 11.2263 245.722 11.5625 245.722 11.9886C245.722 12.571 245.938 13.0114 246.369 13.3097C246.804 13.6032 247.356 13.75 248.023 13.75ZM257.503 8.4375V15H255.827V4.09091H257.446V5.79545H257.588C257.844 5.24148 258.232 4.7964 258.753 4.46023C259.274 4.11932 259.946 3.94886 260.77 3.94886C261.509 3.94886 262.155 4.10038 262.709 4.40341C263.263 4.7017 263.694 5.15625 264.002 5.76705C264.31 6.37311 264.463 7.14015 264.463 8.06818V15H262.787V8.18182C262.787 7.32481 262.565 6.6572 262.12 6.17898C261.675 5.69602 261.064 5.45455 260.287 5.45455C259.752 5.45455 259.274 5.57055 258.853 5.80256C258.436 6.03456 258.107 6.37311 257.865 6.81818C257.624 7.26326 257.503 7.80303 257.503 8.4375ZM271.646 15.2273C270.737 15.2273 269.934 14.9976 269.238 14.5384C268.542 14.0743 267.997 13.4209 267.604 12.5781C267.211 11.7306 267.015 10.7292 267.015 9.57386C267.015 8.42803 267.211 7.43371 267.604 6.59091C267.997 5.74811 268.544 5.09706 269.245 4.63778C269.946 4.1785 270.755 3.94886 271.674 3.94886C272.384 3.94886 272.945 4.06723 273.357 4.30398C273.774 4.53598 274.091 4.80114 274.309 5.09943C274.531 5.39299 274.704 5.63447 274.827 5.82386H274.969V0.454545H276.646V15H275.026V13.3239H274.827C274.704 13.5227 274.529 13.7737 274.302 14.0767C274.075 14.375 273.75 14.6425 273.329 14.8793C272.907 15.1113 272.346 15.2273 271.646 15.2273ZM271.873 13.7216C272.545 13.7216 273.113 13.5464 273.577 13.196C274.041 12.8409 274.394 12.3509 274.636 11.7259C274.877 11.0961 274.998 10.3693 274.998 9.54545C274.998 8.73106 274.879 8.01847 274.643 7.40767C274.406 6.79214 274.056 6.31392 273.592 5.97301C273.128 5.62737 272.555 5.45455 271.873 5.45455C271.163 5.45455 270.571 5.63684 270.097 6.00142C269.629 6.36127 269.276 6.85133 269.039 7.47159C268.807 8.08712 268.691 8.77841 268.691 9.54545C268.691 10.322 268.809 11.0275 269.046 11.6619C269.288 12.2917 269.643 12.7936 270.112 13.1676C270.585 13.5369 271.172 13.7216 271.873 13.7216ZM287.675 6.53409L286.17 6.96023C286.075 6.70928 285.935 6.46544 285.751 6.22869C285.571 5.98722 285.325 5.78835 285.012 5.6321C284.7 5.47585 284.299 5.39773 283.812 5.39773C283.144 5.39773 282.588 5.55161 282.143 5.85938C281.702 6.16241 281.482 6.5483 281.482 7.01705C281.482 7.43371 281.634 7.76278 281.937 8.00426C282.24 8.24574 282.713 8.44697 283.357 8.60795L284.977 9.00568C285.952 9.24242 286.679 9.60464 287.157 10.0923C287.635 10.5753 287.874 11.1979 287.874 11.9602C287.874 12.5852 287.694 13.1439 287.335 13.6364C286.979 14.1288 286.482 14.517 285.843 14.8011C285.204 15.0852 284.46 15.2273 283.613 15.2273C282.5 15.2273 281.579 14.9858 280.85 14.5028C280.121 14.0199 279.659 13.3144 279.465 12.3864L281.056 11.9886C281.208 12.5758 281.494 13.0161 281.915 13.3097C282.342 13.6032 282.898 13.75 283.585 13.75C284.366 13.75 284.986 13.5843 285.445 13.2528C285.909 12.9167 286.141 12.5142 286.141 12.0455C286.141 11.6667 286.009 11.3494 285.744 11.0938C285.478 10.8333 285.071 10.6392 284.522 10.5114L282.704 10.0852C281.705 9.84848 280.971 9.48153 280.502 8.98438C280.038 8.48248 279.806 7.85511 279.806 7.10227C279.806 6.48674 279.979 5.94223 280.325 5.46875C280.675 4.99527 281.151 4.62358 281.752 4.35369C282.358 4.08381 283.045 3.94886 283.812 3.94886C284.891 3.94886 285.739 4.18561 286.354 4.65909C286.975 5.13258 287.415 5.75758 287.675 6.53409Z" fill="black"/>
</svg>
