<svg width="82" height="78" viewBox="0 0 82 78" fill="none" xmlns="http://www.w3.org/2000/svg">
<path d="M34.5 1.65079C34.7794 1.7454 35.0588 1.84002 35.3466 1.9375C38.6676 3.20728 41.8734 5.04558 44.5 7.5873C44.7127 7.78487 44.9253 7.98245 45.1445 8.18601C47.5183 10.426 49.7102 12.643 50.1201 16.179C50.2728 19.1792 49.6071 21.6602 47.8437 24.0139C45.9607 26.135 43.7824 27.0317 41.1093 27.1171C37.9729 27.0712 36.1084 25.6729 33.9521 23.4152C31.9518 21.3733 29.6496 19.9626 26.8593 19.8819C24.0751 19.9913 22.296 21.0622 20.3281 23.1369C18.4971 25.7518 18.0998 28.7017 18.5 31.873C19.3307 35.7394 21.3271 39.4455 23.75 42.3968C23.9333 42.624 24.1167 42.8511 24.3056 43.0851C24.8621 43.7641 25.4279 44.4317 26 45.0952C26.2296 45.365 26.2296 45.365 26.4638 45.6402C29.3745 48.9292 33.078 51.6314 36.625 54.0601C36.8312 54.2184 37.0375 54.3766 37.25 54.5397C37.25 54.7178 37.25 54.8959 37.25 55.0794C37.0444 55.1876 36.8387 55.2957 36.6269 55.4072C33.134 57.3271 30.7718 59.7042 29.33 63.7385C28.8669 65.2967 28.9178 66.8325 28.9531 68.4534C28.9565 68.7513 28.9599 69.0492 28.9633 69.3562C28.9721 70.0842 28.9844 70.8119 29 71.5397C28.1217 71.1888 27.373 70.7749 26.5937 70.2158C26.3774 70.0609 26.1611 69.906 25.9383 69.7464C25.7112 69.5813 25.484 69.4162 25.25 69.246C24.8981 68.9913 24.8981 68.9913 24.5391 68.7315C22.7164 67.4016 20.9634 66.0131 19.25 64.5238C19.027 64.3349 18.8039 64.1461 18.5742 63.9515C11.8936 58.206 6.58307 51.3198 2.99996 42.9365C2.88201 42.668 2.76406 42.3994 2.64254 42.1228C-0.36994 34.5695 -0.43294 25.6185 2.33651 18.0089C5.13668 10.8379 10.6179 5.17597 17.2596 2.23461C22.6992 -0.0127017 28.9374 -0.240449 34.5 1.65079Z" fill="#128983" fill-opacity="0.8"/>
<path d="M62.25 1.38095C62.5558 1.47278 62.8617 1.56461 63.1768 1.65922C69.7508 3.82229 75.2225 8.6271 78.5576 15.1228C82.1083 22.3497 82.8294 30.7339 80.75 38.619C78.4745 46.4722 74.2321 52.9697 69 58.8571C68.8044 59.0794 68.6088 59.3017 68.4072 59.5307C67.0314 61.058 65.5423 62.3884 64 63.7143C63.7074 63.9732 63.4151 64.2325 63.123 64.4922C61.0015 66.3686 58.819 68.0705 56.5 69.6508C56.325 69.77 56.15 69.8893 55.9697 70.0122C53.3799 71.7668 50.7508 73.4465 48.0518 74.9982C47.6855 75.2101 47.3209 75.4254 46.958 75.6441C44.1176 77.348 41.5481 78.1782 38.3037 77.2843C37.7366 77.0386 37.2602 76.7587 36.75 76.3968C36.5766 76.2792 36.4032 76.1617 36.2246 76.0405C34.2297 74.5647 32.8207 72.4705 32.25 69.9206C31.912 66.8214 32.3829 64.1156 34.1562 61.6061C35.7608 59.8004 37.9361 58.7427 39.9687 57.6091C44.1413 55.2767 48.0798 52.5813 51.75 49.4127C51.9643 49.2282 51.9643 49.2282 52.183 49.0399C57.2935 44.6006 62.8021 38.6928 63.75 31.3333C63.9252 28.2634 63.7733 25.6271 61.9141 23.1875C60.3194 21.3039 58.678 20.0939 56.2559 19.9346C55.3359 19.9223 54.4189 19.9524 53.5 20C53.499 19.8453 53.4979 19.6906 53.4969 19.5312C53.4489 15.1445 53.4489 15.1445 52 11.0952C51.9004 10.8938 51.8008 10.6924 51.6982 10.4849C50.2039 7.77073 47.7426 5.4224 45.3779 3.61241C45.2532 3.49936 45.1285 3.38631 45 3.26983C45 3.09174 45 2.91364 45 2.73015C50.2367 0.0602138 56.7047 -0.343065 62.25 1.38095Z" fill="#C3E1E0"/>
</svg>
